<mxfile host="app.diagrams.net" modified="2023-09-08T09:39:11.332Z" agent="Mozilla/5.0 (Macintosh; Intel Mac OS X 10_15_7) AppleWebKit/605.1.15 (KHTML, like Gecko) Version/16.6 Safari/605.1.15" etag="nOUT8MxUFf-DmZgz9svU" version="21.7.2" type="github" pages="3">
  <diagram name="frontend-overview" id="yg9NMF4CQtwNHBXyD65Y">
    <mxGraphModel dx="893" dy="647" grid="1" gridSize="10" guides="1" tooltips="1" connect="1" arrows="1" fold="1" page="1" pageScale="1" pageWidth="827" pageHeight="1169" math="0" shadow="0">
      <root>
        <mxCell id="0" />
        <mxCell id="1" parent="0" />
        <mxCell id="JIQRy20RYuxQGagxVLXQ-2" value="Items" style="rounded=1;whiteSpace=wrap;html=1;" parent="1" vertex="1">
          <mxGeometry x="260" y="550" width="200" height="40" as="geometry" />
        </mxCell>
        <mxCell id="JIQRy20RYuxQGagxVLXQ-3" value="Headlines" style="rounded=1;whiteSpace=wrap;html=1;" parent="1" vertex="1">
          <mxGeometry x="260" y="190" width="200" height="40" as="geometry" />
        </mxCell>
        <mxCell id="JIQRy20RYuxQGagxVLXQ-4" value="Shop category display" style="rounded=1;whiteSpace=wrap;html=1;" parent="1" vertex="1">
          <mxGeometry x="260" y="270" width="200" height="40" as="geometry" />
        </mxCell>
        <mxCell id="JIQRy20RYuxQGagxVLXQ-5" value="Regional display" style="rounded=1;whiteSpace=wrap;html=1;" parent="1" vertex="1">
          <mxGeometry x="260" y="350" width="200" height="40" as="geometry" />
        </mxCell>
        <mxCell id="JIQRy20RYuxQGagxVLXQ-18" style="edgeStyle=orthogonalEdgeStyle;rounded=0;orthogonalLoop=1;jettySize=auto;html=1;exitX=1;exitY=0.5;exitDx=0;exitDy=0;entryX=0;entryY=0.5;entryDx=0;entryDy=0;" parent="1" source="JIQRy20RYuxQGagxVLXQ-6" target="JIQRy20RYuxQGagxVLXQ-15" edge="1">
          <mxGeometry relative="1" as="geometry" />
        </mxCell>
        <mxCell id="JIQRy20RYuxQGagxVLXQ-19" style="edgeStyle=orthogonalEdgeStyle;rounded=0;orthogonalLoop=1;jettySize=auto;html=1;entryX=0;entryY=0.5;entryDx=0;entryDy=0;" parent="1" source="JIQRy20RYuxQGagxVLXQ-6" target="JIQRy20RYuxQGagxVLXQ-16" edge="1">
          <mxGeometry relative="1" as="geometry" />
        </mxCell>
        <mxCell id="JIQRy20RYuxQGagxVLXQ-20" style="edgeStyle=orthogonalEdgeStyle;rounded=0;orthogonalLoop=1;jettySize=auto;html=1;entryX=0;entryY=0.5;entryDx=0;entryDy=0;" parent="1" source="JIQRy20RYuxQGagxVLXQ-6" target="JIQRy20RYuxQGagxVLXQ-17" edge="1">
          <mxGeometry relative="1" as="geometry" />
        </mxCell>
        <mxCell id="JIQRy20RYuxQGagxVLXQ-6" value="Shop" style="rounded=1;whiteSpace=wrap;html=1;" parent="1" vertex="1">
          <mxGeometry x="260" y="430" width="200" height="40" as="geometry" />
        </mxCell>
        <mxCell id="JIQRy20RYuxQGagxVLXQ-7" value="Frontend" style="rounded=1;whiteSpace=wrap;html=1;" parent="1" vertex="1">
          <mxGeometry x="30" y="340" width="120" height="60" as="geometry" />
        </mxCell>
        <mxCell id="JIQRy20RYuxQGagxVLXQ-10" value="" style="endArrow=classic;html=1;rounded=0;exitX=1;exitY=0.5;exitDx=0;exitDy=0;entryX=0;entryY=0.5;entryDx=0;entryDy=0;" parent="1" source="JIQRy20RYuxQGagxVLXQ-7" target="JIQRy20RYuxQGagxVLXQ-5" edge="1">
          <mxGeometry width="50" height="50" relative="1" as="geometry">
            <mxPoint x="390" y="420" as="sourcePoint" />
            <mxPoint x="240" y="370" as="targetPoint" />
          </mxGeometry>
        </mxCell>
        <mxCell id="JIQRy20RYuxQGagxVLXQ-11" value="" style="endArrow=classic;html=1;rounded=0;entryX=0;entryY=0.5;entryDx=0;entryDy=0;" parent="1" target="JIQRy20RYuxQGagxVLXQ-4" edge="1">
          <mxGeometry width="50" height="50" relative="1" as="geometry">
            <mxPoint x="150" y="340" as="sourcePoint" />
            <mxPoint x="440" y="370" as="targetPoint" />
          </mxGeometry>
        </mxCell>
        <mxCell id="JIQRy20RYuxQGagxVLXQ-12" value="" style="endArrow=classic;html=1;rounded=0;exitX=0.75;exitY=0;exitDx=0;exitDy=0;entryX=0;entryY=0.5;entryDx=0;entryDy=0;" parent="1" source="JIQRy20RYuxQGagxVLXQ-7" target="JIQRy20RYuxQGagxVLXQ-3" edge="1">
          <mxGeometry width="50" height="50" relative="1" as="geometry">
            <mxPoint x="390" y="420" as="sourcePoint" />
            <mxPoint x="440" y="370" as="targetPoint" />
          </mxGeometry>
        </mxCell>
        <mxCell id="JIQRy20RYuxQGagxVLXQ-13" value="" style="endArrow=classic;html=1;rounded=0;entryX=0;entryY=0.5;entryDx=0;entryDy=0;" parent="1" source="JIQRy20RYuxQGagxVLXQ-7" target="JIQRy20RYuxQGagxVLXQ-6" edge="1">
          <mxGeometry width="50" height="50" relative="1" as="geometry">
            <mxPoint x="390" y="420" as="sourcePoint" />
            <mxPoint x="440" y="370" as="targetPoint" />
          </mxGeometry>
        </mxCell>
        <mxCell id="JIQRy20RYuxQGagxVLXQ-14" value="" style="endArrow=classic;html=1;rounded=0;exitX=0.75;exitY=1;exitDx=0;exitDy=0;entryX=0;entryY=0.5;entryDx=0;entryDy=0;" parent="1" source="JIQRy20RYuxQGagxVLXQ-7" target="JIQRy20RYuxQGagxVLXQ-2" edge="1">
          <mxGeometry width="50" height="50" relative="1" as="geometry">
            <mxPoint x="390" y="420" as="sourcePoint" />
            <mxPoint x="440" y="370" as="targetPoint" />
          </mxGeometry>
        </mxCell>
        <mxCell id="JIQRy20RYuxQGagxVLXQ-15" value="List display" style="rounded=1;whiteSpace=wrap;html=1;" parent="1" vertex="1">
          <mxGeometry x="540" y="400" width="120" height="30" as="geometry" />
        </mxCell>
        <mxCell id="JIQRy20RYuxQGagxVLXQ-16" value="Inquire" style="rounded=1;whiteSpace=wrap;html=1;" parent="1" vertex="1">
          <mxGeometry x="540" y="435" width="120" height="30" as="geometry" />
        </mxCell>
        <mxCell id="JIQRy20RYuxQGagxVLXQ-17" value="Details" style="rounded=1;whiteSpace=wrap;html=1;" parent="1" vertex="1">
          <mxGeometry x="540" y="470" width="120" height="30" as="geometry" />
        </mxCell>
        <mxCell id="JIQRy20RYuxQGagxVLXQ-26" style="edgeStyle=orthogonalEdgeStyle;rounded=0;orthogonalLoop=1;jettySize=auto;html=1;exitX=1;exitY=0.5;exitDx=0;exitDy=0;entryX=0;entryY=0.5;entryDx=0;entryDy=0;" parent="1" target="JIQRy20RYuxQGagxVLXQ-29" edge="1">
          <mxGeometry relative="1" as="geometry">
            <mxPoint x="460" y="570" as="sourcePoint" />
          </mxGeometry>
        </mxCell>
        <mxCell id="JIQRy20RYuxQGagxVLXQ-27" style="edgeStyle=orthogonalEdgeStyle;rounded=0;orthogonalLoop=1;jettySize=auto;html=1;entryX=0;entryY=0.5;entryDx=0;entryDy=0;" parent="1" target="JIQRy20RYuxQGagxVLXQ-30" edge="1">
          <mxGeometry relative="1" as="geometry">
            <mxPoint x="460" y="570" as="sourcePoint" />
          </mxGeometry>
        </mxCell>
        <mxCell id="JIQRy20RYuxQGagxVLXQ-28" style="edgeStyle=orthogonalEdgeStyle;rounded=0;orthogonalLoop=1;jettySize=auto;html=1;entryX=0;entryY=0.5;entryDx=0;entryDy=0;" parent="1" target="JIQRy20RYuxQGagxVLXQ-31" edge="1">
          <mxGeometry relative="1" as="geometry">
            <mxPoint x="460" y="570" as="sourcePoint" />
          </mxGeometry>
        </mxCell>
        <mxCell id="JIQRy20RYuxQGagxVLXQ-29" value="List display" style="rounded=1;whiteSpace=wrap;html=1;" parent="1" vertex="1">
          <mxGeometry x="540" y="520" width="120" height="30" as="geometry" />
        </mxCell>
        <mxCell id="JIQRy20RYuxQGagxVLXQ-30" value="Inquire" style="rounded=1;whiteSpace=wrap;html=1;" parent="1" vertex="1">
          <mxGeometry x="540" y="555" width="120" height="30" as="geometry" />
        </mxCell>
        <mxCell id="JIQRy20RYuxQGagxVLXQ-31" value="Details" style="rounded=1;whiteSpace=wrap;html=1;" parent="1" vertex="1">
          <mxGeometry x="540" y="590" width="120" height="30" as="geometry" />
        </mxCell>
      </root>
    </mxGraphModel>
  </diagram>
  <diagram id="7Oc1xKYt8yV8YYKQcMon" name="shop-side">
    <mxGraphModel dx="893" dy="647" grid="1" gridSize="10" guides="1" tooltips="1" connect="1" arrows="1" fold="1" page="1" pageScale="1" pageWidth="827" pageHeight="1169" math="0" shadow="0">
      <root>
        <mxCell id="0" />
        <mxCell id="1" parent="0" />
        <mxCell id="dY-WuM4Mc8xsH6_dF0qL-1" value="Shop system" style="rounded=1;whiteSpace=wrap;html=1;" vertex="1" parent="1">
          <mxGeometry x="40" y="285" width="120" height="50" as="geometry" />
        </mxCell>
        <mxCell id="dY-WuM4Mc8xsH6_dF0qL-2" value="WeChat maintenance" style="rounded=1;whiteSpace=wrap;html=1;" vertex="1" parent="1">
          <mxGeometry x="250" y="210" width="200" height="40" as="geometry" />
        </mxCell>
        <mxCell id="dY-WuM4Mc8xsH6_dF0qL-3" value="Local account maintenance" style="rounded=1;whiteSpace=wrap;html=1;" vertex="1" parent="1">
          <mxGeometry x="250" y="130" width="200" height="40" as="geometry" />
        </mxCell>
        <mxCell id="dY-WuM4Mc8xsH6_dF0qL-4" value="Shop info maintenance" style="rounded=1;whiteSpace=wrap;html=1;" vertex="1" parent="1">
          <mxGeometry x="250" y="290" width="200" height="40" as="geometry" />
        </mxCell>
        <mxCell id="dY-WuM4Mc8xsH6_dF0qL-5" value="Authorization verification" style="rounded=1;whiteSpace=wrap;html=1;" vertex="1" parent="1">
          <mxGeometry x="250" y="370" width="200" height="40" as="geometry" />
        </mxCell>
        <mxCell id="dY-WuM4Mc8xsH6_dF0qL-6" value="Product category maintenance" style="rounded=1;whiteSpace=wrap;html=1;" vertex="1" parent="1">
          <mxGeometry x="250" y="450" width="200" height="40" as="geometry" />
        </mxCell>
        <mxCell id="dY-WuM4Mc8xsH6_dF0qL-7" value="" style="endArrow=classic;html=1;rounded=0;exitX=0.75;exitY=0;exitDx=0;exitDy=0;entryX=0;entryY=0.5;entryDx=0;entryDy=0;" edge="1" parent="1" source="dY-WuM4Mc8xsH6_dF0qL-1" target="dY-WuM4Mc8xsH6_dF0qL-3">
          <mxGeometry width="50" height="50" relative="1" as="geometry">
            <mxPoint x="390" y="360" as="sourcePoint" />
            <mxPoint x="440" y="310" as="targetPoint" />
          </mxGeometry>
        </mxCell>
        <mxCell id="dY-WuM4Mc8xsH6_dF0qL-8" value="" style="endArrow=classic;html=1;rounded=0;exitX=1;exitY=0;exitDx=0;exitDy=0;entryX=0;entryY=0.5;entryDx=0;entryDy=0;" edge="1" parent="1" source="dY-WuM4Mc8xsH6_dF0qL-1" target="dY-WuM4Mc8xsH6_dF0qL-2">
          <mxGeometry width="50" height="50" relative="1" as="geometry">
            <mxPoint x="390" y="360" as="sourcePoint" />
            <mxPoint x="440" y="310" as="targetPoint" />
          </mxGeometry>
        </mxCell>
        <mxCell id="dY-WuM4Mc8xsH6_dF0qL-9" value="" style="endArrow=classic;html=1;rounded=0;exitX=1;exitY=0.5;exitDx=0;exitDy=0;entryX=0;entryY=0.5;entryDx=0;entryDy=0;" edge="1" parent="1" source="dY-WuM4Mc8xsH6_dF0qL-1" target="dY-WuM4Mc8xsH6_dF0qL-4">
          <mxGeometry width="50" height="50" relative="1" as="geometry">
            <mxPoint x="390" y="360" as="sourcePoint" />
            <mxPoint x="440" y="310" as="targetPoint" />
          </mxGeometry>
        </mxCell>
        <mxCell id="dY-WuM4Mc8xsH6_dF0qL-10" value="" style="endArrow=classic;html=1;rounded=0;exitX=1;exitY=1;exitDx=0;exitDy=0;entryX=0;entryY=0.5;entryDx=0;entryDy=0;" edge="1" parent="1" source="dY-WuM4Mc8xsH6_dF0qL-1" target="dY-WuM4Mc8xsH6_dF0qL-5">
          <mxGeometry width="50" height="50" relative="1" as="geometry">
            <mxPoint x="390" y="360" as="sourcePoint" />
            <mxPoint x="440" y="310" as="targetPoint" />
          </mxGeometry>
        </mxCell>
        <mxCell id="dY-WuM4Mc8xsH6_dF0qL-11" value="" style="endArrow=classic;html=1;rounded=0;exitX=0.75;exitY=1;exitDx=0;exitDy=0;entryX=0;entryY=0.5;entryDx=0;entryDy=0;" edge="1" parent="1" source="dY-WuM4Mc8xsH6_dF0qL-1" target="dY-WuM4Mc8xsH6_dF0qL-6">
          <mxGeometry width="50" height="50" relative="1" as="geometry">
            <mxPoint x="390" y="360" as="sourcePoint" />
            <mxPoint x="440" y="310" as="targetPoint" />
          </mxGeometry>
        </mxCell>
      </root>
    </mxGraphModel>
  </diagram>
  <diagram id="nf8lksyVO0ukAJojjA6v" name="root-manager">
    <mxGraphModel dx="893" dy="647" grid="1" gridSize="10" guides="1" tooltips="1" connect="1" arrows="1" fold="1" page="1" pageScale="1" pageWidth="827" pageHeight="1169" math="0" shadow="0">
      <root>
        <mxCell id="0" />
        <mxCell id="1" parent="0" />
        <mxCell id="iqRn9ODy9sJIiA67UwMr-2" value="Headlines maintenance" style="rounded=1;whiteSpace=wrap;html=1;" vertex="1" parent="1">
          <mxGeometry x="350" y="120" width="170" height="30" as="geometry" />
        </mxCell>
        <mxCell id="iqRn9ODy9sJIiA67UwMr-3" value="Shop category maintenance" style="rounded=1;whiteSpace=wrap;html=1;" vertex="1" parent="1">
          <mxGeometry x="350" y="190" width="170" height="30" as="geometry" />
        </mxCell>
        <mxCell id="iqRn9ODy9sJIiA67UwMr-4" value="Region category maintenance" style="rounded=1;whiteSpace=wrap;html=1;" vertex="1" parent="1">
          <mxGeometry x="350" y="260" width="170" height="30" as="geometry" />
        </mxCell>
        <mxCell id="iqRn9ODy9sJIiA67UwMr-5" value="Authorization verification" style="rounded=1;whiteSpace=wrap;html=1;" vertex="1" parent="1">
          <mxGeometry x="350" y="330" width="170" height="30" as="geometry" />
        </mxCell>
        <mxCell id="iqRn9ODy9sJIiA67UwMr-6" value="User management" style="rounded=1;whiteSpace=wrap;html=1;" vertex="1" parent="1">
          <mxGeometry x="350" y="450" width="170" height="30" as="geometry" />
        </mxCell>
        <mxCell id="iqRn9ODy9sJIiA67UwMr-7" value="Shop management" style="rounded=1;whiteSpace=wrap;html=1;" vertex="1" parent="1">
          <mxGeometry x="350" y="390" width="170" height="30" as="geometry" />
        </mxCell>
        <mxCell id="iqRn9ODy9sJIiA67UwMr-9" value="Root manager" style="rounded=1;whiteSpace=wrap;html=1;" vertex="1" parent="1">
          <mxGeometry x="100" y="280" width="120" height="60" as="geometry" />
        </mxCell>
        <mxCell id="iqRn9ODy9sJIiA67UwMr-10" value="" style="endArrow=classic;html=1;rounded=0;exitX=0.5;exitY=0;exitDx=0;exitDy=0;entryX=0;entryY=0.5;entryDx=0;entryDy=0;" edge="1" parent="1" source="iqRn9ODy9sJIiA67UwMr-9" target="iqRn9ODy9sJIiA67UwMr-2">
          <mxGeometry width="50" height="50" relative="1" as="geometry">
            <mxPoint x="390" y="360" as="sourcePoint" />
            <mxPoint x="440" y="310" as="targetPoint" />
          </mxGeometry>
        </mxCell>
        <mxCell id="iqRn9ODy9sJIiA67UwMr-11" value="" style="endArrow=classic;html=1;rounded=0;exitX=1;exitY=0;exitDx=0;exitDy=0;entryX=0;entryY=0.5;entryDx=0;entryDy=0;" edge="1" parent="1" source="iqRn9ODy9sJIiA67UwMr-9" target="iqRn9ODy9sJIiA67UwMr-3">
          <mxGeometry width="50" height="50" relative="1" as="geometry">
            <mxPoint x="390" y="360" as="sourcePoint" />
            <mxPoint x="440" y="310" as="targetPoint" />
          </mxGeometry>
        </mxCell>
        <mxCell id="iqRn9ODy9sJIiA67UwMr-12" value="" style="endArrow=classic;html=1;rounded=0;exitX=1;exitY=0.25;exitDx=0;exitDy=0;entryX=0;entryY=0.5;entryDx=0;entryDy=0;" edge="1" parent="1" source="iqRn9ODy9sJIiA67UwMr-9" target="iqRn9ODy9sJIiA67UwMr-4">
          <mxGeometry width="50" height="50" relative="1" as="geometry">
            <mxPoint x="230" y="290" as="sourcePoint" />
            <mxPoint x="360" y="215" as="targetPoint" />
          </mxGeometry>
        </mxCell>
        <mxCell id="iqRn9ODy9sJIiA67UwMr-13" value="" style="endArrow=classic;html=1;rounded=0;exitX=1;exitY=0.75;exitDx=0;exitDy=0;entryX=0;entryY=0.5;entryDx=0;entryDy=0;" edge="1" parent="1" source="iqRn9ODy9sJIiA67UwMr-9" target="iqRn9ODy9sJIiA67UwMr-5">
          <mxGeometry width="50" height="50" relative="1" as="geometry">
            <mxPoint x="240" y="300" as="sourcePoint" />
            <mxPoint x="370" y="225" as="targetPoint" />
          </mxGeometry>
        </mxCell>
        <mxCell id="iqRn9ODy9sJIiA67UwMr-14" value="" style="endArrow=classic;html=1;rounded=0;exitX=1;exitY=1;exitDx=0;exitDy=0;entryX=0;entryY=0.5;entryDx=0;entryDy=0;" edge="1" parent="1" source="iqRn9ODy9sJIiA67UwMr-9" target="iqRn9ODy9sJIiA67UwMr-7">
          <mxGeometry width="50" height="50" relative="1" as="geometry">
            <mxPoint x="250" y="310" as="sourcePoint" />
            <mxPoint x="380" y="235" as="targetPoint" />
          </mxGeometry>
        </mxCell>
        <mxCell id="iqRn9ODy9sJIiA67UwMr-15" value="" style="endArrow=classic;html=1;rounded=0;exitX=0.5;exitY=1;exitDx=0;exitDy=0;entryX=0;entryY=0.5;entryDx=0;entryDy=0;" edge="1" parent="1" source="iqRn9ODy9sJIiA67UwMr-9" target="iqRn9ODy9sJIiA67UwMr-6">
          <mxGeometry width="50" height="50" relative="1" as="geometry">
            <mxPoint x="260" y="320" as="sourcePoint" />
            <mxPoint x="390" y="245" as="targetPoint" />
          </mxGeometry>
        </mxCell>
      </root>
    </mxGraphModel>
  </diagram>
</mxfile>
